<svg xmlns="http://www.w3.org/2000/svg" viewBox="0 0 1040 644" width="1040" height="644" font-family="ui-monospace,SFMono-Regular,Menlo,Consolas,monospace" font-size="14" role="img" aria-label="BOOTH">
<rect width="1040" height="644" rx="8" fill="#151a23"/>
<rect x="16" y="16" width="8.4" height="18" fill="#151a23"/>
<rect x="24.4" y="16" width="75.6" height="18" fill="#7aa2f7"/>
<rect x="100" y="16" width="8.4" height="18" fill="#151a23"/>
<rect x="108.4" y="16" width="8.4" height="18" fill="#151a23"/>
<rect x="116.8" y="16" width="8.4" height="18" fill="#151a23"/>
<rect x="125.2" y="16" width="100.8" height="18" fill="#151a23"/>
<rect x="226" y="16" width="562.8" height="18" fill="#151a23"/>
<rect x="788.8" y="16" width="75.6" height="18" fill="#151a23"/>
<rect x="864.4" y="16" width="16.8" height="18" fill="#151a23"/>
<rect x="881.2" y="16" width="67.2" height="18" fill="#151a23"/>
<rect x="948.4" y="16" width="8.4" height="18" fill="#151a23"/>
<rect x="956.8" y="16" width="58.8" height="18" fill="#151a23"/>
<rect x="1015.6" y="16" width="8.4" height="18" fill="#151a23"/>
<rect x="16" y="34" width="252" height="18" fill="#151a23"/>
<rect x="268" y="34" width="756" height="18" fill="#151a23"/>
<rect x="16" y="52" width="8.4" height="18" fill="#151a23"/>
<rect x="24.4" y="52" width="25.2" height="18" fill="#1f2535"/>
<rect x="49.6" y="52" width="8.4" height="18" fill="#1f2535"/>
<rect x="58" y="52" width="109.2" height="18" fill="#1f2535"/>
<rect x="167.2" y="52" width="92.4" height="18" fill="#1f2535"/>
<rect x="259.6" y="52" width="8.4" height="18" fill="#151a23"/>
<rect x="268" y="52" width="8.4" height="18" fill="#151a23"/>
<rect x="763.6" y="52" width="16.8" height="18" fill="#151a23"/>
<rect x="780.4" y="52" width="42" height="18" fill="#151a23"/>
<rect x="822.4" y="52" width="126" height="18" fill="#151a23"/>
<rect x="948.4" y="52" width="67.2" height="18" fill="#151a23"/>
<rect x="1015.6" y="52" width="8.4" height="18" fill="#151a23"/>
<rect x="16" y="70" width="8.4" height="18" fill="#151a23"/>
<rect x="24.4" y="70" width="25.2" height="18" fill="#151a23"/>
<rect x="49.6" y="70" width="8.4" height="18" fill="#151a23"/>
<rect x="58" y="70" width="109.2" height="18" fill="#151a23"/>
<rect x="167.2" y="70" width="92.4" height="18" fill="#151a23"/>
<rect x="259.6" y="70" width="8.4" height="18" fill="#151a23"/>
<rect x="268" y="70" width="8.4" height="18" fill="#151a23"/>
<rect x="763.6" y="70" width="16.8" height="18" fill="#151a23"/>
<rect x="780.4" y="70" width="25.2" height="18" fill="#151a23"/>
<rect x="805.6" y="70" width="8.4" height="18" fill="#151a23"/>
<rect x="814" y="70" width="134.4" height="18" fill="#151a23"/>
<rect x="948.4" y="70" width="8.4" height="18" fill="#151a23"/>
<rect x="956.8" y="70" width="58.8" height="18" fill="#151a23"/>
<rect x="1015.6" y="70" width="8.4" height="18" fill="#151a23"/>
<rect x="16" y="88" width="8.4" height="18" fill="#151a23"/>
<rect x="24.4" y="88" width="235.2" height="18" fill="#151a23"/>
<rect x="259.6" y="88" width="8.4" height="18" fill="#151a23"/>
<rect x="268" y="88" width="8.4" height="18" fill="#151a23"/>
<rect x="763.6" y="88" width="16.8" height="18" fill="#151a23"/>
<rect x="780.4" y="88" width="235.2" height="18" fill="#1b2230"/>
<rect x="1015.6" y="88" width="8.4" height="18" fill="#151a23"/>
<rect x="16" y="106" width="8.4" height="18" fill="#151a23"/>
<rect x="24.4" y="106" width="235.2" height="18" fill="#151a23"/>
<rect x="259.6" y="106" width="8.4" height="18" fill="#151a23"/>
<rect x="268" y="106" width="8.4" height="18" fill="#151a23"/>
<rect x="763.6" y="106" width="16.8" height="18" fill="#151a23"/>
<rect x="780.4" y="106" width="25.2" height="18" fill="#151a23"/>
<rect x="805.6" y="106" width="8.4" height="18" fill="#151a23"/>
<rect x="814" y="106" width="75.6" height="18" fill="#151a23"/>
<rect x="889.6" y="106" width="75.6" height="18" fill="#151a23"/>
<rect x="965.2" y="106" width="50.4" height="18" fill="#151a23"/>
<rect x="1015.6" y="106" width="8.4" height="18" fill="#151a23"/>
<rect x="16" y="124" width="252" height="18" fill="#151a23"/>
<rect x="268" y="124" width="8.4" height="18" fill="#151a23"/>
<rect x="763.6" y="124" width="16.8" height="18" fill="#151a23"/>
<rect x="780.4" y="124" width="235.2" height="18" fill="#1b2230"/>
<rect x="1015.6" y="124" width="8.4" height="18" fill="#151a23"/>
<rect x="16" y="142" width="8.4" height="18" fill="#151a23"/>
<rect x="24.4" y="142" width="42" height="18" fill="#151a23"/>
<rect x="66.4" y="142" width="184.8" height="18" fill="#151a23"/>
<rect x="251.2" y="142" width="8.4" height="18" fill="#151a23"/>
<rect x="259.6" y="142" width="8.4" height="18" fill="#151a23"/>
<rect x="268" y="142" width="8.4" height="18" fill="#151a23"/>
<rect x="763.6" y="142" width="16.8" height="18" fill="#151a23"/>
<rect x="780.4" y="142" width="25.2" height="18" fill="#151a23"/>
<rect x="805.6" y="142" width="8.4" height="18" fill="#151a23"/>
<rect x="814" y="142" width="75.6" height="18" fill="#151a23"/>
<rect x="889.6" y="142" width="50.4" height="18" fill="#151a23"/>
<rect x="940" y="142" width="75.6" height="18" fill="#151a23"/>
<rect x="1015.6" y="142" width="8.4" height="18" fill="#151a23"/>
<rect x="16" y="160" width="8.4" height="18" fill="#151a23"/>
<rect x="24.4" y="160" width="8.4" height="18" fill="#151a23"/>
<rect x="32.8" y="160" width="33.6" height="18" fill="#151a23"/>
<rect x="66.4" y="160" width="193.2" height="18" fill="#151a23"/>
<rect x="259.6" y="160" width="8.4" height="18" fill="#151a23"/>
<rect x="268" y="160" width="8.4" height="18" fill="#151a23"/>
<rect x="763.6" y="160" width="16.8" height="18" fill="#151a23"/>
<rect x="780.4" y="160" width="235.2" height="18" fill="#1b2230"/>
<rect x="1015.6" y="160" width="8.4" height="18" fill="#151a23"/>
<rect x="16" y="178" width="8.4" height="18" fill="#151a23"/>
<rect x="24.4" y="178" width="8.4" height="18" fill="#1f2535"/>
<rect x="32.8" y="178" width="25.2" height="18" fill="#1f2535"/>
<rect x="58" y="178" width="8.4" height="18" fill="#1f2535"/>
<rect x="66.4" y="178" width="50.4" height="18" fill="#1f2535"/>
<rect x="116.8" y="178" width="92.4" height="18" fill="#1f2535"/>
<rect x="209.2" y="178" width="50.4" height="18" fill="#1f2535"/>
<rect x="259.6" y="178" width="8.4" height="18" fill="#151a23"/>
<rect x="268" y="178" width="8.4" height="18" fill="#151a23"/>
<rect x="763.6" y="178" width="16.8" height="18" fill="#151a23"/>
<rect x="780.4" y="178" width="25.2" height="18" fill="#151a23"/>
<rect x="805.6" y="178" width="8.4" height="18" fill="#151a23"/>
<rect x="814" y="178" width="75.6" height="18" fill="#151a23"/>
<rect x="889.6" y="178" width="50.4" height="18" fill="#151a23"/>
<rect x="940" y="178" width="33.6" height="18" fill="#151a23"/>
<rect x="973.6" y="178" width="8.4" height="18" fill="#151a23"/>
<rect x="982" y="178" width="33.6" height="18" fill="#151a23"/>
<rect x="1015.6" y="178" width="8.4" height="18" fill="#151a23"/>
<rect x="16" y="196" width="8.4" height="18" fill="#151a23"/>
<rect x="24.4" y="196" width="8.4" height="18" fill="#151a23"/>
<rect x="32.8" y="196" width="25.2" height="18" fill="#151a23"/>
<rect x="58" y="196" width="8.4" height="18" fill="#151a23"/>
<rect x="66.4" y="196" width="42" height="18" fill="#151a23"/>
<rect x="108.4" y="196" width="100.8" height="18" fill="#151a23"/>
<rect x="209.2" y="196" width="50.4" height="18" fill="#151a23"/>
<rect x="259.6" y="196" width="8.4" height="18" fill="#151a23"/>
<rect x="268" y="196" width="8.4" height="18" fill="#151a23"/>
<rect x="763.6" y="196" width="16.8" height="18" fill="#151a23"/>
<rect x="780.4" y="196" width="235.2" height="18" fill="#1b2230"/>
<rect x="1015.6" y="196" width="8.4" height="18" fill="#151a23"/>
<rect x="16" y="214" width="8.4" height="18" fill="#151a23"/>
<rect x="24.4" y="214" width="8.4" height="18" fill="#151a23"/>
<rect x="32.8" y="214" width="25.2" height="18" fill="#151a23"/>
<rect x="58" y="214" width="8.4" height="18" fill="#151a23"/>
<rect x="66.4" y="214" width="50.4" height="18" fill="#151a23"/>
<rect x="116.8" y="214" width="92.4" height="18" fill="#151a23"/>
<rect x="209.2" y="214" width="50.4" height="18" fill="#151a23"/>
<rect x="259.6" y="214" width="8.4" height="18" fill="#151a23"/>
<rect x="268" y="214" width="8.4" height="18" fill="#151a23"/>
<rect x="763.6" y="214" width="16.8" height="18" fill="#151a23"/>
<rect x="780.4" y="214" width="235.2" height="18" fill="#1b2230"/>
<rect x="1015.6" y="214" width="8.4" height="18" fill="#151a23"/>
<rect x="16" y="232" width="8.4" height="18" fill="#151a23"/>
<rect x="24.4" y="232" width="235.2" height="18" fill="#151a23"/>
<rect x="259.6" y="232" width="8.4" height="18" fill="#151a23"/>
<rect x="268" y="232" width="8.4" height="18" fill="#151a23"/>
<rect x="763.6" y="232" width="16.8" height="18" fill="#151a23"/>
<rect x="780.4" y="232" width="25.2" height="18" fill="#151a23"/>
<rect x="805.6" y="232" width="8.4" height="18" fill="#151a23"/>
<rect x="814" y="232" width="117.6" height="18" fill="#151a23"/>
<rect x="931.6" y="232" width="16.8" height="18" fill="#151a23"/>
<rect x="948.4" y="232" width="25.2" height="18" fill="#151a23"/>
<rect x="973.6" y="232" width="8.4" height="18" fill="#151a23"/>
<rect x="982" y="232" width="33.6" height="18" fill="#151a23"/>
<rect x="1015.6" y="232" width="8.4" height="18" fill="#151a23"/>
<rect x="16" y="250" width="8.4" height="18" fill="#151a23"/>
<rect x="24.4" y="250" width="235.2" height="18" fill="#151a23"/>
<rect x="259.6" y="250" width="8.4" height="18" fill="#151a23"/>
<rect x="268" y="250" width="8.4" height="18" fill="#151a23"/>
<rect x="763.6" y="250" width="16.8" height="18" fill="#151a23"/>
<rect x="780.4" y="250" width="235.2" height="18" fill="#1b2230"/>
<rect x="1015.6" y="250" width="8.4" height="18" fill="#151a23"/>
<rect x="16" y="268" width="8.4" height="18" fill="#151a23"/>
<rect x="24.4" y="268" width="235.2" height="18" fill="#151a23"/>
<rect x="259.6" y="268" width="8.4" height="18" fill="#151a23"/>
<rect x="268" y="268" width="8.4" height="18" fill="#151a23"/>
<rect x="763.6" y="268" width="16.8" height="18" fill="#151a23"/>
<rect x="780.4" y="268" width="235.2" height="18" fill="#1b2230"/>
<rect x="1015.6" y="268" width="8.4" height="18" fill="#151a23"/>
<rect x="16" y="286" width="8.4" height="18" fill="#151a23"/>
<rect x="24.4" y="286" width="235.2" height="18" fill="#151a23"/>
<rect x="259.6" y="286" width="8.4" height="18" fill="#151a23"/>
<rect x="268" y="286" width="8.4" height="18" fill="#151a23"/>
<rect x="763.6" y="286" width="16.8" height="18" fill="#151a23"/>
<rect x="780.4" y="286" width="25.2" height="18" fill="#151a23"/>
<rect x="805.6" y="286" width="8.4" height="18" fill="#151a23"/>
<rect x="814" y="286" width="117.6" height="18" fill="#151a23"/>
<rect x="931.6" y="286" width="16.8" height="18" fill="#151a23"/>
<rect x="948.4" y="286" width="67.2" height="18" fill="#151a23"/>
<rect x="1015.6" y="286" width="8.4" height="18" fill="#151a23"/>
<rect x="16" y="304" width="8.4" height="18" fill="#151a23"/>
<rect x="24.4" y="304" width="235.2" height="18" fill="#151a23"/>
<rect x="259.6" y="304" width="8.4" height="18" fill="#151a23"/>
<rect x="268" y="304" width="8.4" height="18" fill="#151a23"/>
<rect x="763.6" y="304" width="16.8" height="18" fill="#151a23"/>
<rect x="780.4" y="304" width="25.2" height="18" fill="#151a23"/>
<rect x="805.6" y="304" width="8.4" height="18" fill="#151a23"/>
<rect x="814" y="304" width="92.4" height="18" fill="#151a23"/>
<rect x="906.4" y="304" width="42" height="18" fill="#151a23"/>
<rect x="948.4" y="304" width="67.2" height="18" fill="#151a23"/>
<rect x="1015.6" y="304" width="8.4" height="18" fill="#151a23"/>
<rect x="16" y="322" width="8.4" height="18" fill="#151a23"/>
<rect x="24.4" y="322" width="235.2" height="18" fill="#151a23"/>
<rect x="259.6" y="322" width="8.4" height="18" fill="#151a23"/>
<rect x="268" y="322" width="8.4" height="18" fill="#151a23"/>
<rect x="763.6" y="322" width="16.8" height="18" fill="#151a23"/>
<rect x="780.4" y="322" width="25.2" height="18" fill="#151a23"/>
<rect x="805.6" y="322" width="8.4" height="18" fill="#151a23"/>
<rect x="814" y="322" width="8.4" height="18" fill="#151a23"/>
<rect x="822.4" y="322" width="126" height="18" fill="#151a23"/>
<rect x="948.4" y="322" width="67.2" height="18" fill="#151a23"/>
<rect x="1015.6" y="322" width="8.4" height="18" fill="#151a23"/>
<rect x="16" y="340" width="8.4" height="18" fill="#151a23"/>
<rect x="24.4" y="340" width="235.2" height="18" fill="#151a23"/>
<rect x="259.6" y="340" width="8.4" height="18" fill="#151a23"/>
<rect x="268" y="340" width="8.4" height="18" fill="#151a23"/>
<rect x="763.6" y="340" width="16.8" height="18" fill="#151a23"/>
<rect x="780.4" y="340" width="235.2" height="18" fill="#151a23"/>
<rect x="1015.6" y="340" width="8.4" height="18" fill="#151a23"/>
<rect x="16" y="358" width="8.4" height="18" fill="#151a23"/>
<rect x="24.4" y="358" width="235.2" height="18" fill="#151a23"/>
<rect x="259.6" y="358" width="8.4" height="18" fill="#151a23"/>
<rect x="268" y="358" width="8.4" height="18" fill="#151a23"/>
<rect x="763.6" y="358" width="16.8" height="18" fill="#151a23"/>
<rect x="780.4" y="358" width="235.2" height="18" fill="#151a23"/>
<rect x="1015.6" y="358" width="8.4" height="18" fill="#151a23"/>
<rect x="16" y="376" width="8.4" height="18" fill="#151a23"/>
<rect x="24.4" y="376" width="235.2" height="18" fill="#151a23"/>
<rect x="259.6" y="376" width="8.4" height="18" fill="#151a23"/>
<rect x="268" y="376" width="8.4" height="18" fill="#151a23"/>
<rect x="763.6" y="376" width="16.8" height="18" fill="#151a23"/>
<rect x="780.4" y="376" width="235.2" height="18" fill="#151a23"/>
<rect x="1015.6" y="376" width="8.4" height="18" fill="#151a23"/>
<rect x="16" y="394" width="8.4" height="18" fill="#151a23"/>
<rect x="24.4" y="394" width="235.2" height="18" fill="#151a23"/>
<rect x="259.6" y="394" width="8.4" height="18" fill="#151a23"/>
<rect x="268" y="394" width="8.4" height="18" fill="#151a23"/>
<rect x="763.6" y="394" width="16.8" height="18" fill="#151a23"/>
<rect x="780.4" y="394" width="235.2" height="18" fill="#151a23"/>
<rect x="1015.6" y="394" width="8.4" height="18" fill="#151a23"/>
<rect x="16" y="412" width="8.4" height="18" fill="#151a23"/>
<rect x="24.4" y="412" width="235.2" height="18" fill="#151a23"/>
<rect x="259.6" y="412" width="8.4" height="18" fill="#151a23"/>
<rect x="268" y="412" width="8.4" height="18" fill="#151a23"/>
<rect x="763.6" y="412" width="16.8" height="18" fill="#151a23"/>
<rect x="780.4" y="412" width="235.2" height="18" fill="#151a23"/>
<rect x="1015.6" y="412" width="8.4" height="18" fill="#151a23"/>
<rect x="16" y="430" width="8.4" height="18" fill="#151a23"/>
<rect x="24.4" y="430" width="235.2" height="18" fill="#151a23"/>
<rect x="259.6" y="430" width="8.4" height="18" fill="#151a23"/>
<rect x="268" y="430" width="8.4" height="18" fill="#151a23"/>
<rect x="763.6" y="430" width="16.8" height="18" fill="#151a23"/>
<rect x="780.4" y="430" width="235.2" height="18" fill="#151a23"/>
<rect x="1015.6" y="430" width="8.4" height="18" fill="#151a23"/>
<rect x="16" y="448" width="8.4" height="18" fill="#151a23"/>
<rect x="24.4" y="448" width="235.2" height="18" fill="#151a23"/>
<rect x="259.6" y="448" width="8.4" height="18" fill="#151a23"/>
<rect x="268" y="448" width="8.4" height="18" fill="#151a23"/>
<rect x="763.6" y="448" width="16.8" height="18" fill="#151a23"/>
<rect x="780.4" y="448" width="235.2" height="18" fill="#151a23"/>
<rect x="1015.6" y="448" width="8.4" height="18" fill="#151a23"/>
<rect x="16" y="466" width="8.4" height="18" fill="#151a23"/>
<rect x="24.4" y="466" width="235.2" height="18" fill="#151a23"/>
<rect x="259.6" y="466" width="8.4" height="18" fill="#151a23"/>
<rect x="268" y="466" width="8.4" height="18" fill="#151a23"/>
<rect x="763.6" y="466" width="16.8" height="18" fill="#151a23"/>
<rect x="780.4" y="466" width="235.2" height="18" fill="#151a23"/>
<rect x="1015.6" y="466" width="8.4" height="18" fill="#151a23"/>
<rect x="16" y="484" width="8.4" height="18" fill="#151a23"/>
<rect x="24.4" y="484" width="235.2" height="18" fill="#151a23"/>
<rect x="259.6" y="484" width="8.4" height="18" fill="#151a23"/>
<rect x="268" y="484" width="8.4" height="18" fill="#151a23"/>
<rect x="763.6" y="484" width="16.8" height="18" fill="#151a23"/>
<rect x="780.4" y="484" width="235.2" height="18" fill="#151a23"/>
<rect x="1015.6" y="484" width="8.4" height="18" fill="#151a23"/>
<rect x="16" y="502" width="8.4" height="18" fill="#151a23"/>
<rect x="24.4" y="502" width="235.2" height="18" fill="#151a23"/>
<rect x="259.6" y="502" width="8.4" height="18" fill="#151a23"/>
<rect x="268" y="502" width="8.4" height="18" fill="#151a23"/>
<rect x="763.6" y="502" width="16.8" height="18" fill="#151a23"/>
<rect x="780.4" y="502" width="235.2" height="18" fill="#151a23"/>
<rect x="1015.6" y="502" width="8.4" height="18" fill="#151a23"/>
<rect x="16" y="520" width="8.4" height="18" fill="#151a23"/>
<rect x="24.4" y="520" width="235.2" height="18" fill="#151a23"/>
<rect x="259.6" y="520" width="8.4" height="18" fill="#151a23"/>
<rect x="268" y="520" width="8.4" height="18" fill="#151a23"/>
<rect x="763.6" y="520" width="16.8" height="18" fill="#151a23"/>
<rect x="780.4" y="520" width="235.2" height="18" fill="#151a23"/>
<rect x="1015.6" y="520" width="8.4" height="18" fill="#151a23"/>
<rect x="16" y="538" width="8.4" height="18" fill="#151a23"/>
<rect x="24.4" y="538" width="235.2" height="18" fill="#151a23"/>
<rect x="259.6" y="538" width="8.4" height="18" fill="#151a23"/>
<rect x="268" y="538" width="8.4" height="18" fill="#151a23"/>
<rect x="763.6" y="538" width="16.8" height="18" fill="#151a23"/>
<rect x="780.4" y="538" width="235.2" height="18" fill="#151a23"/>
<rect x="1015.6" y="538" width="8.4" height="18" fill="#151a23"/>
<rect x="16" y="556" width="8.4" height="18" fill="#151a23"/>
<rect x="24.4" y="556" width="235.2" height="18" fill="#151a23"/>
<rect x="259.6" y="556" width="8.4" height="18" fill="#151a23"/>
<rect x="268" y="556" width="8.4" height="18" fill="#151a23"/>
<rect x="763.6" y="556" width="16.8" height="18" fill="#151a23"/>
<rect x="780.4" y="556" width="235.2" height="18" fill="#151a23"/>
<rect x="1015.6" y="556" width="8.4" height="18" fill="#151a23"/>
<rect x="16" y="574" width="8.4" height="18" fill="#151a23"/>
<rect x="24.4" y="574" width="235.2" height="18" fill="#151a23"/>
<rect x="259.6" y="574" width="8.4" height="18" fill="#151a23"/>
<rect x="268" y="574" width="8.4" height="18" fill="#151a23"/>
<rect x="763.6" y="574" width="16.8" height="18" fill="#151a23"/>
<rect x="780.4" y="574" width="235.2" height="18" fill="#151a23"/>
<rect x="1015.6" y="574" width="8.4" height="18" fill="#151a23"/>
<rect x="16" y="592" width="252" height="18" fill="#151a23"/>
<rect x="268" y="592" width="756" height="18" fill="#151a23"/>
<rect x="16" y="610" width="260.4" height="18" fill="#1b2230"/>
<rect x="276.4" y="610" width="8.4" height="18" fill="#1b2230"/>
<rect x="284.8" y="610" width="159.6" height="18" fill="#1b2230"/>
<rect x="444.4" y="610" width="285.6" height="18" fill="#1b2230"/>
<rect x="730" y="610" width="294" height="18" fill="#1b2230"/>
<text x="24.4" y="29.3" fill="#151a23" font-weight="700" textLength="75.6" lengthAdjust="spacingAndGlyphs" xml:space="preserve">[ booth!]</text>
<text x="108.4" y="29.3" fill="#2b3547" textLength="8.4" lengthAdjust="spacingAndGlyphs" xml:space="preserve">│</text>
<text x="125.2" y="29.3" fill="#f7768e" textLength="100.8" lengthAdjust="spacingAndGlyphs" xml:space="preserve">  1:repo !  </text>
<text x="788.8" y="29.3" fill="#dde4ef" textLength="75.6" lengthAdjust="spacingAndGlyphs" xml:space="preserve">[views v]</text>
<text x="881.2" y="29.3" fill="#66738a" textLength="67.2" lengthAdjust="spacingAndGlyphs" xml:space="preserve">[+ host]</text>
<text x="956.8" y="29.3" fill="#66738a" textLength="58.8" lengthAdjust="spacingAndGlyphs" xml:space="preserve">[+ new]</text>
<text x="16" y="47.3" fill="#7aa2f7" textLength="252" lengthAdjust="spacingAndGlyphs" xml:space="preserve">┌ FLEET (3) ─────────────────┐</text>
<text x="268" y="47.3" fill="#2b3547" textLength="756" lengthAdjust="spacingAndGlyphs" xml:space="preserve">┌ gemini · local:repo ─────────────────────────────────────┐┌ COMPUTE ───────────────────┐</text>
<text x="16" y="65.3" fill="#7aa2f7" textLength="8.4" lengthAdjust="spacingAndGlyphs" xml:space="preserve">│</text>
<text x="24.4" y="65.3" fill="#f7768e" textLength="25.2" lengthAdjust="spacingAndGlyphs" xml:space="preserve">?o?</text>
<text x="58" y="65.3" fill="#dde4ef" textLength="109.2" lengthAdjust="spacingAndGlyphs" xml:space="preserve">gemini · repo</text>
<text x="259.6" y="65.3" fill="#7aa2f7" textLength="8.4" lengthAdjust="spacingAndGlyphs" xml:space="preserve">│</text>
<text x="268" y="65.3" fill="#2b3547" textLength="8.4" lengthAdjust="spacingAndGlyphs" xml:space="preserve">│</text>
<text x="763.6" y="65.3" fill="#2b3547" textLength="16.8" lengthAdjust="spacingAndGlyphs" xml:space="preserve">││</text>
<text x="780.4" y="65.3" fill="#dde4ef" textLength="42" lengthAdjust="spacingAndGlyphs" xml:space="preserve">local</text>
<text x="948.4" y="65.3" fill="#66738a" textLength="67.2" lengthAdjust="spacingAndGlyphs" xml:space="preserve">3 agents</text>
<text x="1015.6" y="65.3" fill="#2b3547" textLength="8.4" lengthAdjust="spacingAndGlyphs" xml:space="preserve">│</text>
<text x="16" y="83.3" fill="#7aa2f7" textLength="8.4" lengthAdjust="spacingAndGlyphs" xml:space="preserve">│</text>
<text x="24.4" y="83.3" fill="#7dcfff" textLength="25.2" lengthAdjust="spacingAndGlyphs" xml:space="preserve">\o/</text>
<text x="58" y="83.3" fill="#dde4ef" textLength="109.2" lengthAdjust="spacingAndGlyphs" xml:space="preserve">claude · repo</text>
<text x="259.6" y="83.3" fill="#7aa2f7" textLength="8.4" lengthAdjust="spacingAndGlyphs" xml:space="preserve">│</text>
<text x="268" y="83.3" fill="#2b3547" textLength="8.4" lengthAdjust="spacingAndGlyphs" xml:space="preserve">│</text>
<text x="763.6" y="83.3" fill="#2b3547" textLength="16.8" lengthAdjust="spacingAndGlyphs" xml:space="preserve">││</text>
<text x="780.4" y="83.3" fill="#8d9aae" textLength="25.2" lengthAdjust="spacingAndGlyphs" xml:space="preserve">CPU</text>
<text x="814" y="83.3" fill="#66738a" textLength="134.4" lengthAdjust="spacingAndGlyphs" xml:space="preserve">8-core x86   16T</text>
<text x="956.8" y="83.3" fill="#9ece6a" textLength="58.8" lengthAdjust="spacingAndGlyphs" xml:space="preserve">20% 62°</text>
<text x="1015.6" y="83.3" fill="#2b3547" textLength="8.4" lengthAdjust="spacingAndGlyphs" xml:space="preserve">│</text>
<text x="16" y="101.3" fill="#7aa2f7" textLength="8.4" lengthAdjust="spacingAndGlyphs" xml:space="preserve">│</text>
<text x="259.6" y="101.3" fill="#7aa2f7" textLength="8.4" lengthAdjust="spacingAndGlyphs" xml:space="preserve">│</text>
<text x="268" y="101.3" fill="#2b3547" textLength="8.4" lengthAdjust="spacingAndGlyphs" xml:space="preserve">│</text>
<text x="763.6" y="101.3" fill="#2b3547" textLength="16.8" lengthAdjust="spacingAndGlyphs" xml:space="preserve">││</text>
<text x="780.4" y="101.3" fill="#9ece6a" textLength="235.2" lengthAdjust="spacingAndGlyphs" xml:space="preserve">⣀⣀⣀⣀⣀⣀⣀⣀⣀⣀⣀⣀⣀⣀⣀⣀⣀⣀⣀⣀⣀⣀⣀⣀⣀⣀⣀⣀</text>
<text x="1015.6" y="101.3" fill="#2b3547" textLength="8.4" lengthAdjust="spacingAndGlyphs" xml:space="preserve">│</text>
<text x="16" y="119.3" fill="#7aa2f7" textLength="8.4" lengthAdjust="spacingAndGlyphs" xml:space="preserve">│</text>
<text x="259.6" y="119.3" fill="#7aa2f7" textLength="8.4" lengthAdjust="spacingAndGlyphs" xml:space="preserve">│</text>
<text x="268" y="119.3" fill="#2b3547" textLength="8.4" lengthAdjust="spacingAndGlyphs" xml:space="preserve">│</text>
<text x="763.6" y="119.3" fill="#2b3547" textLength="16.8" lengthAdjust="spacingAndGlyphs" xml:space="preserve">││</text>
<text x="780.4" y="119.3" fill="#8d9aae" textLength="25.2" lengthAdjust="spacingAndGlyphs" xml:space="preserve">RAM</text>
<text x="814" y="119.3" fill="#66738a" textLength="75.6" lengthAdjust="spacingAndGlyphs" xml:space="preserve">swap 2/4G</text>
<text x="965.2" y="119.3" fill="#9ece6a" textLength="50.4" lengthAdjust="spacingAndGlyphs" xml:space="preserve">10/79G</text>
<text x="1015.6" y="119.3" fill="#2b3547" textLength="8.4" lengthAdjust="spacingAndGlyphs" xml:space="preserve">│</text>
<text x="16" y="137.3" fill="#f7768e" textLength="252" lengthAdjust="spacingAndGlyphs" xml:space="preserve">├ NEEDS YOU (2) ─────────────┤</text>
<text x="268" y="137.3" fill="#2b3547" textLength="8.4" lengthAdjust="spacingAndGlyphs" xml:space="preserve">│</text>
<text x="763.6" y="137.3" fill="#2b3547" textLength="16.8" lengthAdjust="spacingAndGlyphs" xml:space="preserve">││</text>
<text x="780.4" y="137.3" fill="#9ece6a" textLength="235.2" lengthAdjust="spacingAndGlyphs" xml:space="preserve">⣀⣀⣀⣀⣀⣀⣀⣀⣀⣀⣀⣀⣀⣀⣀⣀⣀⣀⣀⣀⣀⣀⣀⣀⣀⣀⣀⣀</text>
<text x="1015.6" y="137.3" fill="#2b3547" textLength="8.4" lengthAdjust="spacingAndGlyphs" xml:space="preserve">│</text>
<text x="16" y="155.3" fill="#7aa2f7" textLength="8.4" lengthAdjust="spacingAndGlyphs" xml:space="preserve">│</text>
<text x="24.4" y="155.3" fill="#dde4ef" textLength="42" lengthAdjust="spacingAndGlyphs" xml:space="preserve">local</text>
<text x="251.2" y="155.3" fill="#66738a" textLength="8.4" lengthAdjust="spacingAndGlyphs" xml:space="preserve">3</text>
<text x="259.6" y="155.3" fill="#7aa2f7" textLength="8.4" lengthAdjust="spacingAndGlyphs" xml:space="preserve">│</text>
<text x="268" y="155.3" fill="#2b3547" textLength="8.4" lengthAdjust="spacingAndGlyphs" xml:space="preserve">│</text>
<text x="763.6" y="155.3" fill="#2b3547" textLength="16.8" lengthAdjust="spacingAndGlyphs" xml:space="preserve">││</text>
<text x="780.4" y="155.3" fill="#8d9aae" textLength="25.2" lengthAdjust="spacingAndGlyphs" xml:space="preserve">GPU</text>
<text x="814" y="155.3" fill="#66738a" textLength="75.6" lengthAdjust="spacingAndGlyphs" xml:space="preserve">RTX A5000</text>
<text x="940" y="155.3" fill="#9ece6a" textLength="75.6" lengthAdjust="spacingAndGlyphs" xml:space="preserve">0% 12/24G</text>
<text x="1015.6" y="155.3" fill="#2b3547" textLength="8.4" lengthAdjust="spacingAndGlyphs" xml:space="preserve">│</text>
<text x="16" y="173.3" fill="#7aa2f7" textLength="8.4" lengthAdjust="spacingAndGlyphs" xml:space="preserve">│</text>
<text x="32.8" y="173.3" fill="#8d9aae" textLength="33.6" lengthAdjust="spacingAndGlyphs" xml:space="preserve">repo</text>
<text x="259.6" y="173.3" fill="#7aa2f7" textLength="8.4" lengthAdjust="spacingAndGlyphs" xml:space="preserve">│</text>
<text x="268" y="173.3" fill="#2b3547" textLength="8.4" lengthAdjust="spacingAndGlyphs" xml:space="preserve">│</text>
<text x="763.6" y="173.3" fill="#2b3547" textLength="16.8" lengthAdjust="spacingAndGlyphs" xml:space="preserve">││</text>
<text x="780.4" y="173.3" fill="#9ece6a" textLength="235.2" lengthAdjust="spacingAndGlyphs" xml:space="preserve">⣀⣀⣀⣀⣀⣀⣀⣀⣀⣀⣀⣀⣀⣀⣀⣀⣀⣀⣀⣀⣀⣀⣀⣀⣀⣀⣀⣀</text>
<text x="1015.6" y="173.3" fill="#2b3547" textLength="8.4" lengthAdjust="spacingAndGlyphs" xml:space="preserve">│</text>
<text x="16" y="191.3" fill="#7aa2f7" textLength="8.4" lengthAdjust="spacingAndGlyphs" xml:space="preserve">│</text>
<text x="32.8" y="191.3" fill="#f7768e" textLength="25.2" lengthAdjust="spacingAndGlyphs" xml:space="preserve">?o?</text>
<text x="66.4" y="191.3" fill="#dde4ef" textLength="50.4" lengthAdjust="spacingAndGlyphs" xml:space="preserve">gemini</text>
<text x="209.2" y="191.3" fill="#dde4ef" textLength="50.4" lengthAdjust="spacingAndGlyphs" xml:space="preserve">[open]</text>
<text x="259.6" y="191.3" fill="#7aa2f7" textLength="8.4" lengthAdjust="spacingAndGlyphs" xml:space="preserve">│</text>
<text x="268" y="191.3" fill="#2b3547" textLength="8.4" lengthAdjust="spacingAndGlyphs" xml:space="preserve">│</text>
<text x="763.6" y="191.3" fill="#2b3547" textLength="16.8" lengthAdjust="spacingAndGlyphs" xml:space="preserve">││</text>
<text x="780.4" y="191.3" fill="#8d9aae" textLength="25.2" lengthAdjust="spacingAndGlyphs" xml:space="preserve">NET</text>
<text x="814" y="191.3" fill="#66738a" textLength="75.6" lengthAdjust="spacingAndGlyphs" xml:space="preserve">eth0 1G  </text>
<text x="940" y="191.3" fill="#7dcfff" textLength="33.6" lengthAdjust="spacingAndGlyphs" xml:space="preserve">↓15k</text>
<text x="982" y="191.3" fill="#7aa2f7" textLength="33.6" lengthAdjust="spacingAndGlyphs" xml:space="preserve">↑86k</text>
<text x="1015.6" y="191.3" fill="#2b3547" textLength="8.4" lengthAdjust="spacingAndGlyphs" xml:space="preserve">│</text>
<text x="16" y="209.3" fill="#7aa2f7" textLength="8.4" lengthAdjust="spacingAndGlyphs" xml:space="preserve">│</text>
<text x="32.8" y="209.3" fill="#e0af68" textLength="25.2" lengthAdjust="spacingAndGlyphs" xml:space="preserve">,o.</text>
<text x="66.4" y="209.3" fill="#dde4ef" textLength="42" lengthAdjust="spacingAndGlyphs" xml:space="preserve">codex</text>
<text x="209.2" y="209.3" fill="#66738a" textLength="50.4" lengthAdjust="spacingAndGlyphs" xml:space="preserve">[open]</text>
<text x="259.6" y="209.3" fill="#7aa2f7" textLength="8.4" lengthAdjust="spacingAndGlyphs" xml:space="preserve">│</text>
<text x="268" y="209.3" fill="#2b3547" textLength="8.4" lengthAdjust="spacingAndGlyphs" xml:space="preserve">│</text>
<text x="763.6" y="209.3" fill="#2b3547" textLength="16.8" lengthAdjust="spacingAndGlyphs" xml:space="preserve">││</text>
<text x="780.4" y="209.3" fill="#7dcfff" textLength="235.2" lengthAdjust="spacingAndGlyphs" xml:space="preserve">↓⠀⠀⠀⠀⠀⠀⠀⠀⠀⠀⠀⠀⠀⠀⠀⠀⠀⠀⠀⠀⠀⠀⢀⣀⣀⣀⣀</text>
<text x="1015.6" y="209.3" fill="#2b3547" textLength="8.4" lengthAdjust="spacingAndGlyphs" xml:space="preserve">│</text>
<text x="16" y="227.3" fill="#7aa2f7" textLength="8.4" lengthAdjust="spacingAndGlyphs" xml:space="preserve">│</text>
<text x="32.8" y="227.3" fill="#7dcfff" textLength="25.2" lengthAdjust="spacingAndGlyphs" xml:space="preserve">\o/</text>
<text x="66.4" y="227.3" fill="#dde4ef" textLength="50.4" lengthAdjust="spacingAndGlyphs" xml:space="preserve">claude</text>
<text x="209.2" y="227.3" fill="#66738a" textLength="50.4" lengthAdjust="spacingAndGlyphs" xml:space="preserve">[open]</text>
<text x="259.6" y="227.3" fill="#7aa2f7" textLength="8.4" lengthAdjust="spacingAndGlyphs" xml:space="preserve">│</text>
<text x="268" y="227.3" fill="#2b3547" textLength="8.4" lengthAdjust="spacingAndGlyphs" xml:space="preserve">│</text>
<text x="763.6" y="227.3" fill="#2b3547" textLength="16.8" lengthAdjust="spacingAndGlyphs" xml:space="preserve">││</text>
<text x="780.4" y="227.3" fill="#7aa2f7" textLength="235.2" lengthAdjust="spacingAndGlyphs" xml:space="preserve">↑⠀⠀⠀⠀⠀⠀⠀⠀⠀⠀⠀⠀⠀⠀⠀⠀⠀⠀⠀⠀⠀⠀⢠⣧⣤⣤⣤</text>
<text x="1015.6" y="227.3" fill="#2b3547" textLength="8.4" lengthAdjust="spacingAndGlyphs" xml:space="preserve">│</text>
<text x="16" y="245.3" fill="#7aa2f7" textLength="8.4" lengthAdjust="spacingAndGlyphs" xml:space="preserve">│</text>
<text x="259.6" y="245.3" fill="#7aa2f7" textLength="8.4" lengthAdjust="spacingAndGlyphs" xml:space="preserve">│</text>
<text x="268" y="245.3" fill="#2b3547" textLength="8.4" lengthAdjust="spacingAndGlyphs" xml:space="preserve">│</text>
<text x="763.6" y="245.3" fill="#2b3547" textLength="16.8" lengthAdjust="spacingAndGlyphs" xml:space="preserve">││</text>
<text x="780.4" y="245.3" fill="#8d9aae" textLength="25.2" lengthAdjust="spacingAndGlyphs" xml:space="preserve">NET</text>
<text x="814" y="245.3" fill="#66738a" textLength="117.6" lengthAdjust="spacingAndGlyphs" xml:space="preserve">vpn-tunnel 10M</text>
<text x="948.4" y="245.3" fill="#7dcfff" textLength="25.2" lengthAdjust="spacingAndGlyphs" xml:space="preserve">↓5k</text>
<text x="982" y="245.3" fill="#7aa2f7" textLength="33.6" lengthAdjust="spacingAndGlyphs" xml:space="preserve">↑75k</text>
<text x="1015.6" y="245.3" fill="#2b3547" textLength="8.4" lengthAdjust="spacingAndGlyphs" xml:space="preserve">│</text>
<text x="16" y="263.3" fill="#7aa2f7" textLength="8.4" lengthAdjust="spacingAndGlyphs" xml:space="preserve">│</text>
<text x="259.6" y="263.3" fill="#7aa2f7" textLength="8.4" lengthAdjust="spacingAndGlyphs" xml:space="preserve">│</text>
<text x="268" y="263.3" fill="#2b3547" textLength="8.4" lengthAdjust="spacingAndGlyphs" xml:space="preserve">│</text>
<text x="763.6" y="263.3" fill="#2b3547" textLength="16.8" lengthAdjust="spacingAndGlyphs" xml:space="preserve">││</text>
<text x="780.4" y="263.3" fill="#7dcfff" textLength="235.2" lengthAdjust="spacingAndGlyphs" xml:space="preserve">↓⠀⠀⠀⠀⠀⠀⠀⠀⠀⠀⠀⠀⠀⠀⠀⠀⠀⠀⠀⠀⠀⠀⢀⣀⣀⣀⣀</text>
<text x="1015.6" y="263.3" fill="#2b3547" textLength="8.4" lengthAdjust="spacingAndGlyphs" xml:space="preserve">│</text>
<text x="16" y="281.3" fill="#7aa2f7" textLength="8.4" lengthAdjust="spacingAndGlyphs" xml:space="preserve">│</text>
<text x="259.6" y="281.3" fill="#7aa2f7" textLength="8.4" lengthAdjust="spacingAndGlyphs" xml:space="preserve">│</text>
<text x="268" y="281.3" fill="#2b3547" textLength="8.4" lengthAdjust="spacingAndGlyphs" xml:space="preserve">│</text>
<text x="763.6" y="281.3" fill="#2b3547" textLength="16.8" lengthAdjust="spacingAndGlyphs" xml:space="preserve">││</text>
<text x="780.4" y="281.3" fill="#7aa2f7" textLength="235.2" lengthAdjust="spacingAndGlyphs" xml:space="preserve">↑⠀⠀⠀⠀⠀⠀⠀⠀⠀⠀⠀⠀⠀⠀⠀⠀⠀⠀⠀⠀⠀⠀⢠⣧⣤⣤⣤</text>
<text x="1015.6" y="281.3" fill="#2b3547" textLength="8.4" lengthAdjust="spacingAndGlyphs" xml:space="preserve">│</text>
<text x="16" y="299.3" fill="#7aa2f7" textLength="8.4" lengthAdjust="spacingAndGlyphs" xml:space="preserve">│</text>
<text x="259.6" y="299.3" fill="#7aa2f7" textLength="8.4" lengthAdjust="spacingAndGlyphs" xml:space="preserve">│</text>
<text x="268" y="299.3" fill="#2b3547" textLength="8.4" lengthAdjust="spacingAndGlyphs" xml:space="preserve">│</text>
<text x="763.6" y="299.3" fill="#2b3547" textLength="16.8" lengthAdjust="spacingAndGlyphs" xml:space="preserve">││</text>
<text x="780.4" y="299.3" fill="#8d9aae" textLength="25.2" lengthAdjust="spacingAndGlyphs" xml:space="preserve">DSK</text>
<text x="814" y="299.3" fill="#66738a" textLength="117.6" lengthAdjust="spacingAndGlyphs" xml:space="preserve">/data         </text>
<text x="948.4" y="299.3" fill="#f7768e" textLength="67.2" lengthAdjust="spacingAndGlyphs" xml:space="preserve">3.5/3.6T</text>
<text x="1015.6" y="299.3" fill="#2b3547" textLength="8.4" lengthAdjust="spacingAndGlyphs" xml:space="preserve">│</text>
<text x="16" y="317.3" fill="#7aa2f7" textLength="8.4" lengthAdjust="spacingAndGlyphs" xml:space="preserve">│</text>
<text x="259.6" y="317.3" fill="#7aa2f7" textLength="8.4" lengthAdjust="spacingAndGlyphs" xml:space="preserve">│</text>
<text x="268" y="317.3" fill="#2b3547" textLength="8.4" lengthAdjust="spacingAndGlyphs" xml:space="preserve">│</text>
<text x="763.6" y="317.3" fill="#2b3547" textLength="16.8" lengthAdjust="spacingAndGlyphs" xml:space="preserve">││</text>
<text x="780.4" y="317.3" fill="#8d9aae" textLength="25.2" lengthAdjust="spacingAndGlyphs" xml:space="preserve">DSK</text>
<text x="814" y="317.3" fill="#66738a" textLength="92.4" lengthAdjust="spacingAndGlyphs" xml:space="preserve">/work      </text>
<text x="948.4" y="317.3" fill="#f7768e" textLength="67.2" lengthAdjust="spacingAndGlyphs" xml:space="preserve">903/916G</text>
<text x="1015.6" y="317.3" fill="#2b3547" textLength="8.4" lengthAdjust="spacingAndGlyphs" xml:space="preserve">│</text>
<text x="16" y="335.3" fill="#7aa2f7" textLength="8.4" lengthAdjust="spacingAndGlyphs" xml:space="preserve">│</text>
<text x="259.6" y="335.3" fill="#7aa2f7" textLength="8.4" lengthAdjust="spacingAndGlyphs" xml:space="preserve">│</text>
<text x="268" y="335.3" fill="#2b3547" textLength="8.4" lengthAdjust="spacingAndGlyphs" xml:space="preserve">│</text>
<text x="276.4" y="335.3" fill="#2b3547" font-weight="700" textLength="50.4" lengthAdjust="spacingAndGlyphs" xml:space="preserve">gemini</text>
<text x="326.8" y="335.3" fill="#2b3547" textLength="436.8" lengthAdjust="spacingAndGlyphs" xml:space="preserve">  regenerate the tide fixture                       </text>
<text x="763.6" y="335.3" fill="#2b3547" textLength="16.8" lengthAdjust="spacingAndGlyphs" xml:space="preserve">││</text>
<text x="780.4" y="335.3" fill="#8d9aae" textLength="25.2" lengthAdjust="spacingAndGlyphs" xml:space="preserve">DSK</text>
<text x="814" y="335.3" fill="#66738a" textLength="8.4" lengthAdjust="spacingAndGlyphs" xml:space="preserve">/</text>
<text x="948.4" y="335.3" fill="#f7768e" textLength="67.2" lengthAdjust="spacingAndGlyphs" xml:space="preserve">202/215G</text>
<text x="1015.6" y="335.3" fill="#2b3547" textLength="8.4" lengthAdjust="spacingAndGlyphs" xml:space="preserve">│</text>
<text x="16" y="353.3" fill="#7aa2f7" textLength="8.4" lengthAdjust="spacingAndGlyphs" xml:space="preserve">│</text>
<text x="259.6" y="353.3" fill="#7aa2f7" textLength="8.4" lengthAdjust="spacingAndGlyphs" xml:space="preserve">│</text>
<text x="268" y="353.3" fill="#2b3547" textLength="8.4" lengthAdjust="spacingAndGlyphs" xml:space="preserve">│</text>
<text x="763.6" y="353.3" fill="#2b3547" textLength="16.8" lengthAdjust="spacingAndGlyphs" xml:space="preserve">││</text>
<text x="1015.6" y="353.3" fill="#2b3547" textLength="8.4" lengthAdjust="spacingAndGlyphs" xml:space="preserve">│</text>
<text x="16" y="371.3" fill="#7aa2f7" textLength="8.4" lengthAdjust="spacingAndGlyphs" xml:space="preserve">│</text>
<text x="259.6" y="371.3" fill="#7aa2f7" textLength="8.4" lengthAdjust="spacingAndGlyphs" xml:space="preserve">│</text>
<text x="268" y="371.3" fill="#2b3547" textLength="8.4" lengthAdjust="spacingAndGlyphs" xml:space="preserve">│</text>
<text x="276.4" y="371.3" fill="#2b3547" textLength="487.2" lengthAdjust="spacingAndGlyphs" xml:space="preserve">  tests/fixtures/tides.bin is 4 MB and checked            </text>
<text x="763.6" y="371.3" fill="#2b3547" textLength="16.8" lengthAdjust="spacingAndGlyphs" xml:space="preserve">││</text>
<text x="1015.6" y="371.3" fill="#2b3547" textLength="8.4" lengthAdjust="spacingAndGlyphs" xml:space="preserve">│</text>
<text x="16" y="389.3" fill="#7aa2f7" textLength="8.4" lengthAdjust="spacingAndGlyphs" xml:space="preserve">│</text>
<text x="259.6" y="389.3" fill="#7aa2f7" textLength="8.4" lengthAdjust="spacingAndGlyphs" xml:space="preserve">│</text>
<text x="268" y="389.3" fill="#2b3547" textLength="8.4" lengthAdjust="spacingAndGlyphs" xml:space="preserve">│</text>
<text x="276.4" y="389.3" fill="#2b3547" textLength="487.2" lengthAdjust="spacingAndGlyphs" xml:space="preserve">  in. I can generate it from data/tides.csv at            </text>
<text x="763.6" y="389.3" fill="#2b3547" textLength="16.8" lengthAdjust="spacingAndGlyphs" xml:space="preserve">││</text>
<text x="1015.6" y="389.3" fill="#2b3547" textLength="8.4" lengthAdjust="spacingAndGlyphs" xml:space="preserve">│</text>
<text x="16" y="407.3" fill="#7aa2f7" textLength="8.4" lengthAdjust="spacingAndGlyphs" xml:space="preserve">│</text>
<text x="259.6" y="407.3" fill="#7aa2f7" textLength="8.4" lengthAdjust="spacingAndGlyphs" xml:space="preserve">│</text>
<text x="268" y="407.3" fill="#2b3547" textLength="8.4" lengthAdjust="spacingAndGlyphs" xml:space="preserve">│</text>
<text x="276.4" y="407.3" fill="#2b3547" textLength="487.2" lengthAdjust="spacingAndGlyphs" xml:space="preserve">  test time instead.                                      </text>
<text x="763.6" y="407.3" fill="#2b3547" textLength="16.8" lengthAdjust="spacingAndGlyphs" xml:space="preserve">││</text>
<text x="1015.6" y="407.3" fill="#2b3547" textLength="8.4" lengthAdjust="spacingAndGlyphs" xml:space="preserve">│</text>
<text x="16" y="425.3" fill="#7aa2f7" textLength="8.4" lengthAdjust="spacingAndGlyphs" xml:space="preserve">│</text>
<text x="259.6" y="425.3" fill="#7aa2f7" textLength="8.4" lengthAdjust="spacingAndGlyphs" xml:space="preserve">│</text>
<text x="268" y="425.3" fill="#2b3547" textLength="8.4" lengthAdjust="spacingAndGlyphs" xml:space="preserve">│</text>
<text x="763.6" y="425.3" fill="#2b3547" textLength="16.8" lengthAdjust="spacingAndGlyphs" xml:space="preserve">││</text>
<text x="1015.6" y="425.3" fill="#2b3547" textLength="8.4" lengthAdjust="spacingAndGlyphs" xml:space="preserve">│</text>
<text x="16" y="443.3" fill="#7aa2f7" textLength="8.4" lengthAdjust="spacingAndGlyphs" xml:space="preserve">│</text>
<text x="259.6" y="443.3" fill="#7aa2f7" textLength="8.4" lengthAdjust="spacingAndGlyphs" xml:space="preserve">│</text>
<text x="268" y="443.3" fill="#2b3547" textLength="8.4" lengthAdjust="spacingAndGlyphs" xml:space="preserve">│</text>
<text x="276.4" y="443.3" fill="#2b3547" textLength="487.2" lengthAdjust="spacingAndGlyphs" xml:space="preserve">╭────────────────────────────────────────────────╮        </text>
<text x="763.6" y="443.3" fill="#2b3547" textLength="16.8" lengthAdjust="spacingAndGlyphs" xml:space="preserve">││</text>
<text x="1015.6" y="443.3" fill="#2b3547" textLength="8.4" lengthAdjust="spacingAndGlyphs" xml:space="preserve">│</text>
<text x="16" y="461.3" fill="#7aa2f7" textLength="8.4" lengthAdjust="spacingAndGlyphs" xml:space="preserve">│</text>
<text x="259.6" y="461.3" fill="#7aa2f7" textLength="8.4" lengthAdjust="spacingAndGlyphs" xml:space="preserve">│</text>
<text x="268" y="461.3" fill="#2b3547" textLength="8.4" lengthAdjust="spacingAndGlyphs" xml:space="preserve">│</text>
<text x="276.4" y="461.3" fill="#2b3547" textLength="487.2" lengthAdjust="spacingAndGlyphs" xml:space="preserve">│ Delete tests/fixtures/tides.bin?               │        </text>
<text x="763.6" y="461.3" fill="#2b3547" textLength="16.8" lengthAdjust="spacingAndGlyphs" xml:space="preserve">││</text>
<text x="1015.6" y="461.3" fill="#2b3547" textLength="8.4" lengthAdjust="spacingAndGlyphs" xml:space="preserve">│</text>
<text x="16" y="479.3" fill="#7aa2f7" textLength="8.4" lengthAdjust="spacingAndGlyphs" xml:space="preserve">│</text>
<text x="259.6" y="479.3" fill="#7aa2f7" textLength="8.4" lengthAdjust="spacingAndGlyphs" xml:space="preserve">│</text>
<text x="268" y="479.3" fill="#2b3547" textLength="8.4" lengthAdjust="spacingAndGlyphs" xml:space="preserve">│</text>
<text x="276.4" y="479.3" fill="#2b3547" textLength="487.2" lengthAdjust="spacingAndGlyphs" xml:space="preserve">│                                                │        </text>
<text x="763.6" y="479.3" fill="#2b3547" textLength="16.8" lengthAdjust="spacingAndGlyphs" xml:space="preserve">││</text>
<text x="1015.6" y="479.3" fill="#2b3547" textLength="8.4" lengthAdjust="spacingAndGlyphs" xml:space="preserve">│</text>
<text x="16" y="497.3" fill="#7aa2f7" textLength="8.4" lengthAdjust="spacingAndGlyphs" xml:space="preserve">│</text>
<text x="259.6" y="497.3" fill="#7aa2f7" textLength="8.4" lengthAdjust="spacingAndGlyphs" xml:space="preserve">│</text>
<text x="268" y="497.3" fill="#2b3547" textLength="8.4" lengthAdjust="spacingAndGlyphs" xml:space="preserve">│</text>
<text x="276.4" y="497.3" fill="#2b3547" textLength="487.2" lengthAdjust="spacingAndGlyphs" xml:space="preserve">│ ❯ 1. Yes                                       │        </text>
<text x="763.6" y="497.3" fill="#2b3547" textLength="16.8" lengthAdjust="spacingAndGlyphs" xml:space="preserve">││</text>
<text x="1015.6" y="497.3" fill="#2b3547" textLength="8.4" lengthAdjust="spacingAndGlyphs" xml:space="preserve">│</text>
<text x="16" y="515.3" fill="#7aa2f7" textLength="8.4" lengthAdjust="spacingAndGlyphs" xml:space="preserve">│</text>
<text x="259.6" y="515.3" fill="#7aa2f7" textLength="8.4" lengthAdjust="spacingAndGlyphs" xml:space="preserve">│</text>
<text x="268" y="515.3" fill="#2b3547" textLength="8.4" lengthAdjust="spacingAndGlyphs" xml:space="preserve">│</text>
<text x="276.4" y="515.3" fill="#2b3547" textLength="487.2" lengthAdjust="spacingAndGlyphs" xml:space="preserve">│   2. Yes, and don't ask again                  │        </text>
<text x="763.6" y="515.3" fill="#2b3547" textLength="16.8" lengthAdjust="spacingAndGlyphs" xml:space="preserve">││</text>
<text x="1015.6" y="515.3" fill="#2b3547" textLength="8.4" lengthAdjust="spacingAndGlyphs" xml:space="preserve">│</text>
<text x="16" y="533.3" fill="#7aa2f7" textLength="8.4" lengthAdjust="spacingAndGlyphs" xml:space="preserve">│</text>
<text x="259.6" y="533.3" fill="#7aa2f7" textLength="8.4" lengthAdjust="spacingAndGlyphs" xml:space="preserve">│</text>
<text x="268" y="533.3" fill="#2b3547" textLength="8.4" lengthAdjust="spacingAndGlyphs" xml:space="preserve">│</text>
<text x="276.4" y="533.3" fill="#2b3547" textLength="487.2" lengthAdjust="spacingAndGlyphs" xml:space="preserve">│   3. No, keep it checked in                    │        </text>
<text x="763.6" y="533.3" fill="#2b3547" textLength="16.8" lengthAdjust="spacingAndGlyphs" xml:space="preserve">││</text>
<text x="1015.6" y="533.3" fill="#2b3547" textLength="8.4" lengthAdjust="spacingAndGlyphs" xml:space="preserve">│</text>
<text x="16" y="551.3" fill="#7aa2f7" textLength="8.4" lengthAdjust="spacingAndGlyphs" xml:space="preserve">│</text>
<text x="259.6" y="551.3" fill="#7aa2f7" textLength="8.4" lengthAdjust="spacingAndGlyphs" xml:space="preserve">│</text>
<text x="268" y="551.3" fill="#2b3547" textLength="8.4" lengthAdjust="spacingAndGlyphs" xml:space="preserve">│</text>
<text x="276.4" y="551.3" fill="#2b3547" textLength="487.2" lengthAdjust="spacingAndGlyphs" xml:space="preserve">╰────────────────────────────────────────────────╯        </text>
<text x="763.6" y="551.3" fill="#2b3547" textLength="16.8" lengthAdjust="spacingAndGlyphs" xml:space="preserve">││</text>
<text x="1015.6" y="551.3" fill="#2b3547" textLength="8.4" lengthAdjust="spacingAndGlyphs" xml:space="preserve">│</text>
<text x="16" y="569.3" fill="#7aa2f7" textLength="8.4" lengthAdjust="spacingAndGlyphs" xml:space="preserve">│</text>
<text x="259.6" y="569.3" fill="#7aa2f7" textLength="8.4" lengthAdjust="spacingAndGlyphs" xml:space="preserve">│</text>
<text x="268" y="569.3" fill="#2b3547" textLength="8.4" lengthAdjust="spacingAndGlyphs" xml:space="preserve">│</text>
<text x="276.4" y="569.3" fill="#2b3547" textLength="487.2" lengthAdjust="spacingAndGlyphs" xml:space="preserve">  Enter to select · ↑/↓ to navigate · Esc                 </text>
<text x="763.6" y="569.3" fill="#2b3547" textLength="16.8" lengthAdjust="spacingAndGlyphs" xml:space="preserve">││</text>
<text x="1015.6" y="569.3" fill="#2b3547" textLength="8.4" lengthAdjust="spacingAndGlyphs" xml:space="preserve">│</text>
<text x="16" y="587.3" fill="#7aa2f7" textLength="8.4" lengthAdjust="spacingAndGlyphs" xml:space="preserve">│</text>
<text x="259.6" y="587.3" fill="#7aa2f7" textLength="8.4" lengthAdjust="spacingAndGlyphs" xml:space="preserve">│</text>
<text x="268" y="587.3" fill="#2b3547" textLength="8.4" lengthAdjust="spacingAndGlyphs" xml:space="preserve">│</text>
<text x="763.6" y="587.3" fill="#2b3547" textLength="16.8" lengthAdjust="spacingAndGlyphs" xml:space="preserve">││</text>
<text x="1015.6" y="587.3" fill="#2b3547" textLength="8.4" lengthAdjust="spacingAndGlyphs" xml:space="preserve">│</text>
<text x="16" y="605.3" fill="#7aa2f7" textLength="252" lengthAdjust="spacingAndGlyphs" xml:space="preserve">└────────────────────────────┘</text>
<text x="268" y="605.3" fill="#2b3547" textLength="756" lengthAdjust="spacingAndGlyphs" xml:space="preserve">└──────────────────────────────────────────────────────────┘└────────────────────────────┘</text>
<text x="16" y="623.3" fill="#8d9aae" textLength="260.4" lengthAdjust="spacingAndGlyphs" xml:space="preserve"> repo /tmp/bshot/repo (berth-c…</text>
<text x="284.8" y="623.3" fill="#e0af68" textLength="159.6" lengthAdjust="spacingAndGlyphs" xml:space="preserve">● gemini is waiting</text>
<text x="730" y="623.3" fill="#8d9aae" textLength="294" lengthAdjust="spacingAndGlyphs" xml:space="preserve">[layout] [detach] [help] [settings]</text>
</svg>
